<svg width="125" height="49" viewBox="0 0 125 49" fill="none" xmlns="http://www.w3.org/2000/svg">
  <path
    d="M27.1447 15.4091C26.9932 13.7424 26.319 12.447 25.122 11.5227C23.9402 10.5833 22.2508 10.1136 20.0538 10.1136C18.5993 10.1136 17.3871 10.303 16.4174 10.6818C15.4477 11.0606 14.7205 11.5833 14.2356 12.25C13.7508 12.9015 13.5008 13.6515 13.4856 14.5C13.4553 15.197 13.5917 15.8106 13.8947 16.3409C14.2129 16.8712 14.6674 17.3409 15.2583 17.75C15.8644 18.1439 16.5917 18.4924 17.4402 18.7955C18.2886 19.0985 19.2432 19.3636 20.3038 19.5909L24.3038 20.5C26.6068 21 28.6371 21.6667 30.3947 22.5C32.1674 23.3333 33.6523 24.3258 34.8493 25.4773C36.0614 26.6288 36.978 27.9545 37.5993 29.4545C38.2205 30.9545 38.5387 32.6364 38.5538 34.5C38.5387 37.4394 37.7962 39.9621 36.3265 42.0682C34.8568 44.1742 32.7432 45.7879 29.9856 46.9091C27.2432 48.0303 23.9326 48.5909 20.0538 48.5909C16.1599 48.5909 12.7659 48.0076 9.87198 46.8409C6.97804 45.6742 4.72804 43.9015 3.12198 41.5227C1.51592 39.1439 0.690163 36.1364 0.644709 32.5H11.4174C11.5083 34 11.9099 35.25 12.622 36.25C13.3341 37.25 14.3114 38.0076 15.5538 38.5227C16.8114 39.0379 18.2659 39.2955 19.9174 39.2955C21.4326 39.2955 22.7205 39.0909 23.7811 38.6818C24.8568 38.2727 25.6826 37.7045 26.2583 36.9773C26.8341 36.25 27.1296 35.4167 27.1447 34.4773C27.1296 33.5985 26.8568 32.8485 26.3265 32.2273C25.7962 31.5909 24.978 31.0455 23.872 30.5909C22.7811 30.1212 21.3871 29.6894 19.6902 29.2955L14.8265 28.1591C10.7962 27.2348 7.62198 25.7424 5.3038 23.6818C2.98562 21.6061 1.8341 18.803 1.84925 15.2727C1.8341 12.3939 2.60683 9.87121 4.16744 7.70454C5.72804 5.53788 7.88713 3.84848 10.6447 2.63636C13.4023 1.42424 16.5462 0.81818 20.0765 0.81818C23.6826 0.81818 26.8114 1.43182 29.4629 2.65909C32.1296 3.87121 34.1977 5.57576 35.6674 7.77273C37.1371 9.9697 37.8871 12.5151 37.9174 15.4091H27.1447ZM86.4856 18.3182H75.122C74.9705 17.1515 74.6599 16.0985 74.1902 15.1591C73.7205 14.2197 73.0993 13.4167 72.3265 12.75C71.5538 12.0833 70.6371 11.5758 69.5765 11.2273C68.5311 10.8636 67.372 10.6818 66.0993 10.6818C63.8417 10.6818 61.8947 11.2348 60.2583 12.3409C58.6371 13.447 57.3871 15.0455 56.5083 17.1364C55.6447 19.2273 55.2129 21.7576 55.2129 24.7273C55.2129 27.8182 55.6523 30.4091 56.5311 32.5C57.425 34.5758 58.675 36.1439 60.2811 37.2045C61.9023 38.25 63.819 38.7727 66.0311 38.7727C67.2735 38.7727 68.4023 38.6136 69.4174 38.2955C70.4477 37.9773 71.3493 37.5152 72.122 36.9091C72.9099 36.2879 73.5538 35.5379 74.0538 34.6591C74.569 33.7652 74.925 32.7576 75.122 31.6364L86.4856 31.7045C86.2887 33.7652 85.6902 35.7955 84.6902 37.7955C83.7053 39.7955 82.3493 41.6212 80.622 43.2727C78.8947 44.9091 76.7887 46.2121 74.3038 47.1818C71.8341 48.1515 69.0008 48.6364 65.8038 48.6364C61.5917 48.6364 57.819 47.7121 54.4856 45.8636C51.1674 44 48.5462 41.2879 46.622 37.7273C44.6977 34.1667 43.7356 29.8333 43.7356 24.7273C43.7356 19.6061 44.7129 15.2652 46.6674 11.7045C48.622 8.14394 51.2659 5.43939 54.5993 3.59091C57.9326 1.74242 61.6674 0.81818 65.8038 0.81818C68.622 0.81818 71.228 1.21212 73.622 2C76.0159 2.77273 78.122 3.90909 79.9402 5.40909C81.7583 6.89394 83.2356 8.7197 84.372 10.8864C85.5083 13.053 86.2129 15.5303 86.4856 18.3182ZM92.9231 48V1.45454H124.696V10.5909H104.173V20.1364H122.673V29.2955H104.173V48H92.9231Z"
    fill="#C33333" />
</svg>